<svg xmlns="http://www.w3.org/2000/svg" width="32" height="32" fill="none"><path fill="#29813F" d="M29.046 15.17c0-.247.022-.427-.134-.628a9.577 9.577 0 0 0-.895-1.009c-.491-.448-1.14-.807-1.721-1.098-1.297-.65-2.683-1.098-4.091-1.412-2.951-.65-6.036-.762-9.054-.628-1.23.068-2.46.135-3.666.359-.47.09-.94.18-1.386.336-.492.157-1.006.336-1.409.65-.134.09-.246.202-.357.314-.09.112-.18.246-.246.38-.067.113-.157.225-.202.36a.775.775 0 0 0-.067.29c0 .113.045.203.045.292 0 .023.693.09.76.112.268.045.537.068.805.09.984.112 1.99.202 2.973.291 2.057.18 4.136.381 6.215.56 1.99.18 3.957.337 5.947.538 2.012.202 4.001.471 6.036.426h.357c.157 0 .09-.067.09-.224ZM11.11 12.221c-.335.202-.444.223-.777.527-.559.582-1.542.269-2.28.201-.112 0-.224-.022-.358-.044-.134-.023-.357.022-.335-.113 0-.179.045-.313.112-.493.09-.201.447-.29.648-.38.268-.113.537-.202.827-.27 1.05-.29 2.169-.47 3.264-.448h.134c-.425.292-.79.753-1.235 1.02ZM6.043 4.527C4.903 4.46 3.897 3.362 4.009 2.22 4.143.986 5.395.112 6.557 0 6.11.717 5.372 1.322 5.149 2.174c-.246.874.424 1.68.894 2.353ZM7.249 9.207c.604-1.479 1.632-2.734 2.258-4.213.335-.785.447-1.57-.313-2.107-.581-.426-1.274-.65-1.923-.896.805-.337 1.856-.359 2.66 0a2.32 2.32 0 0 1 1.364 2.442c-.134 1.143-.827 2.174-1.61 3.004-.715.717-1.542 1.344-2.436 1.77ZM3.695 14.945c-2.124-.112-4.36-2.107-3.51-4.37C.9 8.67 3.225 7.527 5.103 7.28 4.053 8.513 2.51 9.432 1.75 10.911c-.805 1.614.916 3.026 1.945 4.034Z"/><path fill="#2B823F" d="m20.394 10.037-4.247-.426a.468.468 0 0 1-.425-.538l.157-1.614a.467.467 0 0 1 .536-.425l4.248.425c.268.023.47.27.424.538l-.156 1.614c-.023.269-.268.448-.537.426ZM31.997 19.203l-.045-.47a1.055 1.055 0 0 0-1.162-.942l-2.616.269c-.022-.403-.335-.74-.737-.74H6.557a.75.75 0 0 0-.738.762v.404l-2.46-.247a1.055 1.055 0 0 0-1.162.941l-.045.471a1.057 1.057 0 0 0 .94 1.166l2.727.29v7.33c0 1.972 1.14 3.563 2.548 3.563h17.259c1.408 0 2.548-1.591 2.548-3.563V20.66l2.862-.292c.581-.044 1.006-.582.961-1.165ZM12.391 30.297H9.262c-.917 0-1.655-.92-1.655-2.062V20.548c0-.314.268-.583.581-.583h4.203v10.332Z"/></svg>